<?xml version="1.0" encoding="UTF-8"?>
<svg id="uuid-9158c26e-9023-4779-b0b4-c1593659ef58" data-name="katman 1" xmlns="http://www.w3.org/2000/svg" viewBox="0 0 1876.29 1857.05">
  <path d="M185.45,1022.47c53.3,0,88.96-27.61,103.15-74.39h27.61c-15.34,59.82-61.73,97.39-130.75,97.39-83.59,0-139.57-55.21-139.57-138.04s55.98-138.04,139.57-138.04c69.02,0,115.42,37.58,130.75,97.39h-27.61c-14.19-46.78-49.85-74.39-103.15-74.39-67.48,0-112.73,45.25-112.73,115.03s45.25,115.03,112.73,115.03Z" fill="#141414"/>
  <path d="M512.53,924.31h-141.49v83.59h163.73v33.74h-164.11c-21.47,0-36.04-14.57-36.04-36.43v-59.05c0-21.86,3.07-37.19,25.31-36.81h2.68l-.38-3.83h-2.3c-22.24,0-25.31-14.95-25.31-36.81v-59.05c0-21.86,14.57-36.43,36.04-36.43h164.11v33.74h-163.73v83.59h141.49v33.74Z" fill="#141414"/>
  <path d="M594.97,999.46h143.02v42.18h-148.01c-25.69,0-41.03-15.34-41.03-41.41v-227h46.01v226.23Z" fill="#141414"/>
  <path d="M805.09,990.65h136.12v51h-144.56c-29.14,0-47.55-18.41-47.55-47.55v-220.86h55.98v217.41Z" fill="#141414"/>
  <path d="M1132.54,932.75h-126.15v57.9h148.39v51h-156.44c-28.76,0-47.55-19.17-47.55-47.93v-47.55c0-21.86,10.74-37.19,32.98-36.81h2.68l-.38-3.83h-2.3c-22.24,0-32.98-14.95-32.98-36.81v-47.55c0-28.76,18.79-47.93,47.55-47.93h156.44v51h-148.39v57.9h126.15v50.61Z" fill="#141414"/>
  <path d="M1219.96,1041.64h-55.6v-160.28c0-72.09,46.4-111.96,118.1-111.96s116.18,39.88,116.18,111.96v160.28h-55.6v-160.28c0-39.11-27.22-59.43-62.12-59.43s-60.97,20.32-60.97,59.43v160.28Z" fill="#141414"/>
  <path d="M1547.04,824.23v217.41h-55.21v-217.41h-92.79v-51h240.8v51h-92.79Z" fill="#141414"/>
  <path d="M1835,1041.64h-55.6v-65.57h-106.6v65.57h-55.98v-95.86c0-112.35,61.73-172.55,176.38-172.55h41.79v268.41ZM1779.41,925.08v-99.31h-7.29c-57.52,0-93.18,37.19-98.54,99.31h105.83Z" fill="#141414"/>
</svg>